<svg width="30" height="30" viewBox="0 0 30 30" fill="none" xmlns="http://www.w3.org/2000/svg">
<path d="M26.3393 25.5947C26.1279 25.8221 25.9109 26.033 25.6932 26.2446C25.6464 26.2901 25.5996 26.3357 25.5528 26.3814L25.5485 26.3855L25.5485 26.3855C25.1398 26.7753 24.7375 27.1722 24.3625 27.6137L24.3547 27.6228L24.3466 27.6316C23.6085 28.4208 22.7208 28.7968 21.6007 28.7968H21.594C21.5035 28.7968 21.3884 28.7968 21.2768 28.7894M26.3393 25.5947L21.2768 28.7894M26.3393 25.5947C26.7134 25.2048 26.9607 24.7537 26.9595 24.2496C26.9582 23.7421 26.7056 23.2949 26.3222 22.9149C26.3219 22.9147 26.3216 22.9144 26.3214 22.9141L22.8343 19.4271L22.8343 19.427L22.8342 19.427L22.8342 19.427L22.8342 19.4269L22.8341 19.4269L22.8341 19.4269L22.8341 19.4268L22.834 19.4268L22.834 19.4268L22.834 19.4267L22.8339 19.4267L22.8339 19.4266L22.8339 19.4266L22.8338 19.4266L22.8338 19.4265L22.8337 19.4265L22.8337 19.4265L22.8337 19.4264L22.8336 19.4264L22.8336 19.4264L22.8336 19.4263L22.8335 19.4263L22.8335 19.4263L22.8335 19.4262L22.8334 19.4262L22.8334 19.4262L22.8334 19.4261L22.8333 19.4261L22.8333 19.4261L22.8333 19.426L22.8332 19.426L22.8332 19.426L22.8332 19.4259L22.8331 19.4259L22.8331 19.4259L22.8331 19.4258L22.833 19.4258L22.833 19.4258L22.833 19.4257L22.833 19.4257L22.8329 19.4257L22.8329 19.4256L22.8329 19.4256L22.8328 19.4256L22.8328 19.4256L22.8328 19.4255L22.8327 19.4255L22.8327 19.4255L22.8327 19.4254L22.8326 19.4254L22.8326 19.4254L22.8326 19.4253L22.8325 19.4253L22.8325 19.4253L22.8325 19.4252L22.8325 19.4252L22.8324 19.4252L22.8324 19.4252L22.8324 19.4251L22.8323 19.4251L22.8323 19.4251L22.8323 19.425L22.8323 19.425L22.8322 19.425L22.8322 19.425L22.8322 19.4249L22.8321 19.4249L22.8321 19.4249L22.8321 19.4248L22.8321 19.4248L22.832 19.4248L22.832 19.4248L22.832 19.4247L22.8319 19.4247L22.8319 19.4247L22.8319 19.4246L22.8319 19.4246L22.8318 19.4246L22.8318 19.4246L22.8318 19.4245L22.8317 19.4245L22.8317 19.4245L22.8317 19.4244L22.8317 19.4244L22.8316 19.4244L22.8316 19.4244L22.8316 19.4243L22.8316 19.4243L22.8315 19.4243L22.8315 19.4243L22.8315 19.4242L22.8314 19.4242L22.8314 19.4242L22.8314 19.4242L22.8314 19.4241L22.8313 19.4241L22.8313 19.4241L22.8313 19.4241L22.8313 19.424L22.8312 19.424L22.8312 19.424L22.8312 19.424L22.8312 19.4239L22.8311 19.4239L22.8311 19.4239L22.8311 19.4239L22.8311 19.4238L22.831 19.4238L22.831 19.4238L22.831 19.4238L22.831 19.4237L22.8309 19.4237L22.8309 19.4237L22.8309 19.4237L22.8309 19.4236L22.8308 19.4236L22.8308 19.4236L22.8308 19.4236L22.8308 19.4235L22.8308 19.4235L22.8307 19.4235L22.8307 19.4235L22.8307 19.4234L22.8307 19.4234L22.8306 19.4234L22.8306 19.4234L22.8306 19.4233L22.8306 19.4233L22.8305 19.4233L22.8305 19.4233L22.8305 19.4233L22.8305 19.4232L22.8305 19.4232L22.8304 19.4232L22.8304 19.4232L22.8304 19.4231L22.8304 19.4231L22.8303 19.4231L22.8303 19.4231L22.8303 19.423L22.8303 19.423L22.8302 19.423L22.8302 19.423L22.8302 19.423L22.8302 19.4229L22.8302 19.4229L22.8301 19.4229L22.8301 19.4229L22.8301 19.4228L22.8301 19.4228L22.83 19.4228L22.83 19.4228L22.83 19.4228L22.83 19.4227L22.83 19.4227L22.8299 19.4227L22.8299 19.4227L22.8299 19.4227L22.8299 19.4226L22.8299 19.4226L22.8298 19.4226L22.8298 19.4226L22.8298 19.4226L22.8298 19.4225L22.8298 19.4225L22.8297 19.4225L22.8297 19.4225L22.8297 19.4224L22.8297 19.4224L22.8296 19.4224L22.8296 19.4224L22.8296 19.4224L22.8296 19.4223L22.8296 19.4223L22.8295 19.4223L22.8295 19.4223L22.8295 19.4223L22.8295 19.4222L22.8295 19.4222L22.8294 19.4222L22.8294 19.4222L22.8294 19.4222L22.8294 19.4221L22.8294 19.4221L22.8293 19.4221L22.8293 19.4221L22.8293 19.4221L26.3393 25.5947ZM21.2768 28.7894C21.2766 28.7894 21.2764 28.7894 21.2761 28.7893L21.3094 28.2908L21.2775 28.7894C21.2773 28.7894 21.277 28.7894 21.2768 28.7894ZM1.25877 7.89317L1.25891 7.89143C1.33224 7.03352 1.66817 6.3091 2.27732 5.69995L4.43643 3.54083L4.44201 3.53525L4.44777 3.52985C4.81523 3.18488 5.26084 2.94484 5.75241 2.94484C6.35195 2.94484 6.79668 3.30079 7.03039 3.5345L7.03989 3.54401L7.04343 3.54755C7.43699 3.91562 7.80954 4.29478 8.19466 4.69253C8.29117 4.79215 8.38948 4.89203 8.49022 4.99436L8.49313 4.99731C8.59161 5.09735 8.69235 5.19967 8.79331 5.30375L10.5192 7.0296C10.9022 7.4127 11.169 7.85549 11.169 8.36457C11.169 8.87365 10.9022 9.31645 10.5192 9.69954C10.4621 9.75656 10.4036 9.81572 10.3442 9.87584C10.2231 9.99832 10.0982 10.1247 9.97369 10.2451C9.44491 10.7864 8.93356 11.2979 8.37579 11.7986L8.35371 11.8207C8.15672 12.0177 8.1001 12.1841 8.08528 12.3121C8.06902 12.4526 8.09761 12.5944 8.14657 12.7502L8.15475 12.7748L8.15867 12.7865C8.58248 13.8084 9.18137 14.7843 10.1096 15.9657L10.1132 15.9693L10.1296 15.9894C11.8482 18.1065 13.6512 19.7458 15.6312 20.998L15.6317 20.9983C15.8666 21.1472 16.1101 21.2694 16.3663 21.3976L16.3782 21.4035C16.5921 21.5104 16.8187 21.6237 17.0185 21.7464C17.0283 21.7518 17.0369 21.7568 17.0438 21.7609C17.0559 21.7681 17.0671 21.7751 17.0726 21.7785L17.0776 21.7816C17.229 21.8561 17.3532 21.883 17.4724 21.883C17.7804 21.883 17.9823 21.6915 18.0813 21.5925L20.2467 19.4271C20.4843 19.1894 20.9499 18.8058 21.5563 18.8058C22.1501 18.8058 22.594 19.1668 22.8293 19.422L1.25877 7.89317ZM1.25877 7.89317C1.15585 9.14882 1.39318 10.4534 1.9976 12.0719L1.25877 7.89317ZM23.3485 18.9303L23.3484 18.9303L23.3549 18.9369L26.831 22.4256L26.8334 22.428C27.3919 22.9809 27.6603 23.6111 27.6603 24.2445C27.6603 24.8747 27.3955 25.5147 26.8437 26.0888L26.8427 26.0898C26.578 26.3669 26.3055 26.6332 26.0361 26.8902L26.0361 26.8902L26.0333 26.8928C26.0028 26.9224 25.9721 26.952 25.9415 26.9816C25.5792 27.3319 25.2111 27.6877 24.8874 28.0798L24.8807 28.0879C24.8779 28.0911 24.8749 28.0946 24.8718 28.0983C24.8683 28.1024 24.8645 28.107 24.8606 28.1119C23.9997 29.0359 22.913 29.5 21.5943 29.5C21.4826 29.5 21.3564 29.4944 21.2234 29.4881C19.1529 29.3544 17.2825 28.5739 15.8393 27.8901C12.0939 26.0792 8.8139 23.5093 6.08554 20.2516C3.82942 17.5391 2.32935 15.0234 1.32682 12.319L1.32681 12.319C0.914784 11.2078 0.403544 9.57184 0.545731 7.83722C0.636964 6.80886 1.04793 5.93117 1.77507 5.20403L1.77508 5.20403L1.77662 5.20247L3.92863 3.03147L3.93419 3.02591L3.93679 3.02331C4.48964 2.49404 5.11547 2.23528 5.73974 2.23528C6.36399 2.23528 6.97616 2.49392 7.50915 3.02142L7.51533 3.02754L7.52172 3.03344C7.92145 3.40242 8.31135 3.79822 8.6892 4.18863C8.88385 4.39614 9.09016 4.60244 9.28368 4.79596L9.28652 4.7988L11.0151 6.52735C11.6022 7.11443 11.8659 7.75526 11.8659 8.36457C11.8659 8.97388 11.6022 9.61471 11.0151 10.2018C10.9249 10.292 10.8349 10.3836 10.7468 10.4733L10.746 10.474C10.6571 10.5645 10.57 10.6532 10.4832 10.74L10.4808 10.7424C10.4357 10.7882 10.3905 10.834 10.3453 10.8798C9.91827 11.3132 9.48932 11.7484 9.03035 12.1682L8.76294 12.4128L8.91216 12.743C9.31976 13.6451 9.87632 14.5222 10.6852 15.5447L10.6852 15.5447L10.6896 15.5501C12.3517 17.5923 14.094 19.1819 16.0203 20.4053L16.0203 20.4053L16.0247 20.4081C16.228 20.5343 16.4606 20.6506 16.6797 20.7601L16.6881 20.7643C16.7457 20.7942 16.8014 20.8228 16.8562 20.8509C16.9602 20.9042 17.0609 20.9559 17.1657 21.0123L17.4927 21.1884L17.7557 20.9262L19.7566 18.9317L19.7571 18.9312C20.3188 18.3695 20.9438 18.1025 21.569 18.1025C22.1985 18.1025 22.8142 18.374 23.3485 18.9303ZM26.3407 25.59L25.9823 25.2445C26.105 25.1162 26.2041 24.988 26.2795 24.8602C26.3153 24.8882 26.3491 24.9225 26.3787 24.9641C26.4494 25.0635 26.4711 25.1697 26.4711 25.2536C26.4711 25.4061 26.4032 25.5112 26.3691 25.5559C26.3599 25.5681 26.3504 25.5794 26.3407 25.59Z" fill="black" stroke="black"/>
<path d="M16.2952 6.64312L16.2952 6.64311L16.2924 6.64266C16.1105 6.61315 15.9791 6.43462 16.0145 6.23613C16.0485 6.04489 16.2285 5.91371 16.4283 5.94528C18.3315 6.26996 20.0665 7.17032 21.4434 8.54716C22.8202 9.924 23.7206 11.6591 24.0453 13.5622C24.077 13.763 23.9465 13.94 23.7626 13.9736C23.7596 13.974 23.7568 13.9743 23.7541 13.9747C23.736 13.9769 23.7251 13.9783 23.7132 13.9795C23.7006 13.9808 23.6942 13.981 23.6901 13.981C23.515 13.981 23.3694 13.8586 23.3412 13.6896L23.3408 13.6872C23.0383 11.9261 22.2107 10.3253 20.9348 9.04941C19.6598 7.77442 18.0588 6.9393 16.2952 6.64312Z" fill="black" stroke="black"/>
<path d="M29.4725 13.3177L29.4725 13.3177L29.4732 13.3213C29.5062 13.507 29.3785 13.6838 29.1991 13.7136C29.1949 13.7141 29.1909 13.7146 29.1873 13.7151C29.1692 13.7174 29.1583 13.7187 29.1464 13.7199C29.1338 13.7212 29.1274 13.7214 29.1233 13.7214C28.9481 13.7214 28.8025 13.599 28.7744 13.4301L28.7741 13.4287C28.2564 10.3749 26.8142 7.58982 24.6014 5.37704L24.6009 5.37651C22.3892 3.17139 19.6053 1.7227 16.5516 1.20463C16.3543 1.16937 16.2265 0.989951 16.2563 0.793408C16.2937 0.59496 16.4782 0.473445 16.6571 0.505318L16.6608 0.505949C19.8631 1.05193 22.7767 2.56043 25.0973 4.88112C27.418 7.20182 28.9265 10.1154 29.4725 13.3177Z" fill="black" stroke="black"/>
</svg>
